<svg enable-background="new 0 0 128 128" viewBox="0 0 128 128" xmlns="http://www.w3.org/2000/svg" xmlns:xlink="http://www.w3.org/1999/xlink"><radialGradient id="a" cx="53.2144" cy="47.2591" gradientTransform="matrix(1 0 0 -1 0 128)" gradientUnits="userSpaceOnUse" r="55.5588"><stop offset=".00018029" stop-color="#757575"/><stop offset="1" stop-color="#2a2a2a"/></radialGradient><linearGradient id="b" gradientTransform="matrix(1 0 0 -1 0 128)" gradientUnits="userSpaceOnUse" x1="64" x2="64" y1="14.75" y2="-6.1543"><stop offset="0" stop-color="#757575"/><stop offset=".0525" stop-color="#6d6d6d"/><stop offset=".328" stop-color="#494949"/><stop offset=".586" stop-color="#2f2f2f"/><stop offset=".8174" stop-color="#202020"/><stop offset=".9995" stop-color="#1a1a1a"/></linearGradient><linearGradient id="c" gradientTransform="matrix(1 0 0 -1 0 128)" gradientUnits="userSpaceOnUse" x1="64.0048" x2="64.0048" y1="48.2771" y2="38.2641"><stop offset="0" stop-color="#6f6f6f"/><stop offset=".2505" stop-color="#414141"/></linearGradient><linearGradient id="d" gradientTransform="matrix(1 0 0 -1 0 128)" gradientUnits="userSpaceOnUse" x1="63.995" x2="63.995" y1="92.3579" y2="77.2559"><stop offset=".2567" stop-color="#3a3a3a"/><stop offset=".556" stop-color="#636262"/><stop offset=".7429" stop-color="#414141"/></linearGradient><radialGradient id="e" cx="59.75" cy="112.75" gradientTransform="matrix(1 0 0 -1 0 128)" gradientUnits="userSpaceOnUse" r="21.408"><stop offset=".1512" stop-color="#757575"/><stop offset=".9979" stop-color="#3f3f3f"/></radialGradient><path d="m93.12 111.75c1.56-1.56 2.76-3.72 2.76-7.69 0-3.96-5.76-6.84-10.45-9.61-4.68-2.76-4.92-6.12-4.8-8.29.12-2.16 2.16-3.36 2.28-5.16s-3.96-1.32-6.84-3.72-3.48-20.9-3.24-23.78 2.04-2.64 5.16-3.72 4.56-1.08 4.56-3.24-3.24-3.06-8.47-4.68-3.78-7.56-3.78-7.56c-.18-.18-12.43-.18-12.61 0 0 0 1.44 5.94-3.78 7.57s-8.47 2.52-8.47 4.68 1.44 2.16 4.56 3.24 4.92.84 5.16 3.72-.36 21.38-3.24 23.78-6.97 1.92-6.84 3.72 2.16 3 2.28 5.16-.12 5.52-4.8 8.29c-4.68 2.76-10.45 5.64-10.45 9.61 0 3.96 1.2 6.12 2.76 7.69 0 0-2.52 1.44-2.52 3.72v6.12s5.89 2.4 31.65 2.4 31.64-2.4 31.64-2.4 0-3.84 0-6.12c0-2.29-2.52-3.73-2.52-3.73z" fill="url(#a)"/><path d="m93.5 112s-6.25 1.5-30 1.5-29-1.5-29-1.5c-.7.5-2.14 1.75-2.14 3.47v6.12s5.88 2.41 31.64 2.41 31.64-2.4 31.64-2.4 0-3.84 0-6.12c0-1.73-1.44-2.98-2.14-3.48z" fill="url(#b)"/><path d="m82.91 81.01c.12-1.8-3.96-1.32-6.84-3.72-.09-.08-.18-.18-.27-.29h-23.59c-.09.11-.18.21-.27.29-2.88 2.4-6.97 1.92-6.84 3.72s2.16 3 2.28 5.16c.03.45.03.96-.01 1.49h33.29c-.04-.54-.04-1.04-.01-1.49.1-2.16 2.14-3.36 2.26-5.16z" fill="url(#c)"/><path d="m50.01 49.79c2.2.76 3.74.87 4.55 1.88h18.88c.8-1.01 2.35-1.12 4.55-1.88 3.12-1.08 4.56-1.08 4.56-3.24s-3.24-3.06-8.47-4.68-3.78-7.57-3.78-7.57c-.18-.18-12.43-.18-12.61 0 0 0 1.44 5.94-3.78 7.57s-8.47 2.52-8.47 4.68 1.45 2.16 4.57 3.24z" fill="url(#d)"/><circle cx="64" cy="21.55" fill="url(#e)" r="17.55"/></svg>