<?xml version="1.0" encoding="utf-8"?>
<!-- Generator: Adobe Illustrator 25.0.0, SVG Export Plug-In . SVG Version: 6.00 Build 0)  -->
<svg version="1.1" id="Layer_1" xmlns="http://www.w3.org/2000/svg" xmlns:xlink="http://www.w3.org/1999/xlink" x="0px" y="0px"
	 viewBox="0 0 1920 1080" style="enable-background:new 0 0 1920 1080;" xml:space="preserve">
<style type="text/css">
	.st0{opacity:0.08;}
</style>
<g class="st0">
	<ellipse cx="14.97" cy="14.36" rx="14.97" ry="14.36"/>
</g>
<g class="st0">
	<ellipse cx="114.39" cy="14.36" rx="14.97" ry="14.36"/>
</g>
<g class="st0">
	<ellipse cx="213.8" cy="14.36" rx="14.97" ry="14.36"/>
</g>
<g class="st0">
	<ellipse cx="313.21" cy="14.36" rx="14.97" ry="14.36"/>
</g>
<g class="st0">
	<ellipse cx="412.63" cy="14.36" rx="14.97" ry="14.36"/>
</g>
<g class="st0">
	<ellipse cx="512.04" cy="14.36" rx="14.97" ry="14.36"/>
</g>
<g class="st0">
	<ellipse cx="611.45" cy="14.36" rx="14.97" ry="14.36"/>
</g>
<g class="st0">
	<ellipse cx="710.87" cy="14.36" rx="14.97" ry="14.36"/>
</g>
<g class="st0">
	<ellipse cx="810.28" cy="14.36" rx="14.97" ry="14.36"/>
</g>
<g class="st0">
	<ellipse cx="909.69" cy="14.36" rx="14.97" ry="14.36"/>
</g>
<g class="st0">
	<ellipse cx="1009.11" cy="14.36" rx="14.97" ry="14.36"/>
</g>
<g class="st0">
	<ellipse cx="1108.52" cy="14.36" rx="14.97" ry="14.36"/>
</g>
<g class="st0">
	<ellipse cx="1207.94" cy="14.36" rx="14.97" ry="14.36"/>
</g>
<g class="st0">
	<ellipse cx="1307.35" cy="14.36" rx="14.97" ry="14.36"/>
</g>
<g class="st0">
	<ellipse cx="1406.76" cy="14.36" rx="14.97" ry="14.36"/>
</g>
<g class="st0">
	<ellipse cx="1506.18" cy="14.36" rx="14.97" ry="14.36"/>
</g>
<g class="st0">
	<ellipse cx="1605.59" cy="14.36" rx="14.97" ry="14.36"/>
</g>
<g class="st0">
	<ellipse cx="1706.2" cy="14.36" rx="14.97" ry="14.36"/>
</g>
<g class="st0">
	<ellipse cx="1805.61" cy="14.36" rx="14.97" ry="14.36"/>
</g>
<g class="st0">
	<ellipse cx="1905.03" cy="14.36" rx="14.97" ry="14.36"/>
</g>
<g class="st0">
	<ellipse cx="14.97" cy="969.13" rx="14.97" ry="14.36"/>
</g>
<g class="st0">
	<ellipse cx="14.97" cy="873.77" rx="14.97" ry="14.36"/>
</g>
<g class="st0">
	<ellipse cx="14.97" cy="778.4" rx="14.97" ry="14.36"/>
</g>
<g class="st0">
	<ellipse cx="14.97" cy="683.04" rx="14.97" ry="14.36"/>
</g>
<g class="st0">
	<ellipse cx="14.97" cy="587.68" rx="14.97" ry="14.36"/>
</g>
<g class="st0">
	<ellipse cx="14.97" cy="492.32" rx="14.97" ry="14.36"/>
</g>
<g class="st0">
	<ellipse cx="14.97" cy="396.96" rx="14.97" ry="14.36"/>
</g>
<g class="st0">
	<ellipse cx="14.97" cy="301.6" rx="14.97" ry="14.36"/>
</g>
<g class="st0">
	<ellipse cx="14.97" cy="205.09" rx="14.97" ry="14.36"/>
</g>
<g class="st0">
	<ellipse cx="14.97" cy="109.72" rx="14.97" ry="14.36"/>
</g>
<g class="st0">
	<ellipse cx="114.39" cy="109.72" rx="14.97" ry="14.36"/>
</g>
<g class="st0">
	<ellipse cx="213.8" cy="109.72" rx="14.97" ry="14.36"/>
</g>
<g class="st0">
	<ellipse cx="313.21" cy="109.72" rx="14.97" ry="14.36"/>
</g>
<g class="st0">
	<ellipse cx="412.63" cy="109.72" rx="14.97" ry="14.36"/>
</g>
<g class="st0">
	<ellipse cx="512.04" cy="109.72" rx="14.97" ry="14.36"/>
</g>
<g class="st0">
	<ellipse cx="611.45" cy="109.72" rx="14.97" ry="14.36"/>
</g>
<g class="st0">
	<ellipse cx="710.87" cy="109.72" rx="14.97" ry="14.36"/>
</g>
<g class="st0">
	<ellipse cx="810.28" cy="109.72" rx="14.97" ry="14.36"/>
</g>
<g class="st0">
	<ellipse cx="909.69" cy="109.72" rx="14.97" ry="14.36"/>
</g>
<g class="st0">
	<ellipse cx="1009.11" cy="109.72" rx="14.97" ry="14.36"/>
</g>
<g class="st0">
	<ellipse cx="1108.52" cy="109.72" rx="14.97" ry="14.36"/>
</g>
<g class="st0">
	<ellipse cx="1207.94" cy="109.72" rx="14.97" ry="14.36"/>
</g>
<g class="st0">
	<ellipse cx="1307.35" cy="109.72" rx="14.97" ry="14.36"/>
</g>
<g class="st0">
	<ellipse cx="1406.76" cy="109.72" rx="14.97" ry="14.36"/>
</g>
<g class="st0">
	<ellipse cx="1506.18" cy="109.72" rx="14.97" ry="14.36"/>
</g>
<g class="st0">
	<ellipse cx="1605.59" cy="109.72" rx="14.97" ry="14.36"/>
</g>
<g class="st0">
	<ellipse cx="1706.2" cy="109.72" rx="14.97" ry="14.36"/>
</g>
<g class="st0">
	<ellipse cx="1805.61" cy="109.72" rx="14.97" ry="14.36"/>
</g>
<g class="st0">
	<ellipse cx="1905.03" cy="109.72" rx="14.97" ry="14.36"/>
</g>
<g class="st0">
	<ellipse cx="114.39" cy="205.09" rx="14.97" ry="14.36"/>
</g>
<g class="st0">
	<ellipse cx="213.8" cy="205.09" rx="14.97" ry="14.36"/>
</g>
<g class="st0">
	<ellipse cx="313.21" cy="205.09" rx="14.97" ry="14.36"/>
</g>
<g class="st0">
	<ellipse cx="412.63" cy="205.09" rx="14.97" ry="14.36"/>
</g>
<g class="st0">
	<ellipse cx="512.04" cy="205.09" rx="14.97" ry="14.36"/>
</g>
<g class="st0">
	<ellipse cx="611.45" cy="205.09" rx="14.97" ry="14.36"/>
</g>
<g class="st0">
	<ellipse cx="710.87" cy="205.09" rx="14.97" ry="14.36"/>
</g>
<g class="st0">
	<ellipse cx="810.28" cy="205.09" rx="14.97" ry="14.36"/>
</g>
<g class="st0">
	<ellipse cx="909.69" cy="205.09" rx="14.97" ry="14.36"/>
</g>
<g class="st0">
	<ellipse cx="1009.11" cy="205.09" rx="14.97" ry="14.36"/>
</g>
<g class="st0">
	<ellipse cx="1108.52" cy="205.09" rx="14.97" ry="14.36"/>
</g>
<g class="st0">
	<ellipse cx="1207.94" cy="205.09" rx="14.97" ry="14.36"/>
</g>
<g class="st0">
	<ellipse cx="1307.35" cy="205.09" rx="14.97" ry="14.36"/>
</g>
<g class="st0">
	<ellipse cx="1406.76" cy="205.09" rx="14.97" ry="14.36"/>
</g>
<g class="st0">
	<ellipse cx="1506.18" cy="205.09" rx="14.97" ry="14.36"/>
</g>
<g class="st0">
	<ellipse cx="1605.59" cy="205.09" rx="14.97" ry="14.36"/>
</g>
<g class="st0">
	<ellipse cx="1706.2" cy="205.09" rx="14.97" ry="14.36"/>
</g>
<g class="st0">
	<ellipse cx="1805.61" cy="205.09" rx="14.97" ry="14.36"/>
</g>
<g class="st0">
	<ellipse cx="1905.03" cy="205.09" rx="14.97" ry="14.36"/>
</g>
<g class="st0">
	<ellipse cx="114.39" cy="301.6" rx="14.97" ry="14.36"/>
</g>
<g class="st0">
	<ellipse cx="213.8" cy="301.6" rx="14.97" ry="14.36"/>
</g>
<g class="st0">
	<ellipse cx="313.21" cy="301.6" rx="14.97" ry="14.36"/>
</g>
<g class="st0">
	<ellipse cx="412.63" cy="301.6" rx="14.97" ry="14.36"/>
</g>
<g class="st0">
	<ellipse cx="512.04" cy="301.6" rx="14.97" ry="14.36"/>
</g>
<g class="st0">
	<ellipse cx="611.45" cy="301.6" rx="14.97" ry="14.36"/>
</g>
<g class="st0">
	<ellipse cx="710.87" cy="301.6" rx="14.97" ry="14.36"/>
</g>
<g class="st0">
	<ellipse cx="810.28" cy="301.6" rx="14.97" ry="14.36"/>
</g>
<g class="st0">
	<ellipse cx="909.69" cy="301.6" rx="14.97" ry="14.36"/>
</g>
<g class="st0">
	<ellipse cx="1009.11" cy="301.6" rx="14.97" ry="14.36"/>
</g>
<g class="st0">
	<ellipse cx="1108.52" cy="301.6" rx="14.97" ry="14.36"/>
</g>
<g class="st0">
	<ellipse cx="1207.94" cy="301.6" rx="14.97" ry="14.36"/>
</g>
<g class="st0">
	<ellipse cx="1307.35" cy="301.6" rx="14.97" ry="14.36"/>
</g>
<g class="st0">
	<ellipse cx="1406.76" cy="301.6" rx="14.97" ry="14.36"/>
</g>
<g class="st0">
	<ellipse cx="1506.18" cy="301.6" rx="14.97" ry="14.36"/>
</g>
<g class="st0">
	<ellipse cx="1606.79" cy="301.6" rx="14.97" ry="14.36"/>
</g>
<g class="st0">
	<ellipse cx="1706.2" cy="301.6" rx="14.97" ry="14.36"/>
</g>
<g class="st0">
	<ellipse cx="1805.61" cy="301.6" rx="14.97" ry="14.36"/>
</g>
<g class="st0">
	<ellipse cx="114.39" cy="396.96" rx="14.97" ry="14.36"/>
</g>
<g class="st0">
	<ellipse cx="213.8" cy="396.96" rx="14.97" ry="14.36"/>
</g>
<g class="st0">
	<ellipse cx="313.21" cy="396.96" rx="14.97" ry="14.36"/>
</g>
<g class="st0">
	<ellipse cx="412.63" cy="396.96" rx="14.97" ry="14.36"/>
</g>
<g class="st0">
	<ellipse cx="512.04" cy="396.96" rx="14.97" ry="14.36"/>
</g>
<g class="st0">
	<ellipse cx="611.45" cy="396.96" rx="14.97" ry="14.36"/>
</g>
<g class="st0">
	<ellipse cx="710.87" cy="396.96" rx="14.97" ry="14.36"/>
</g>
<g class="st0">
	<ellipse cx="810.28" cy="396.96" rx="14.97" ry="14.36"/>
</g>
<g class="st0">
	<ellipse cx="909.69" cy="396.96" rx="14.97" ry="14.36"/>
</g>
<g class="st0">
	<ellipse cx="1009.11" cy="396.96" rx="14.97" ry="14.36"/>
</g>
<g class="st0">
	<ellipse cx="1108.52" cy="396.96" rx="14.97" ry="14.36"/>
</g>
<g class="st0">
	<ellipse cx="1207.94" cy="396.96" rx="14.97" ry="14.36"/>
</g>
<g class="st0">
	<ellipse cx="1307.35" cy="396.96" rx="14.97" ry="14.36"/>
</g>
<g class="st0">
	<ellipse cx="1406.76" cy="396.96" rx="14.97" ry="14.36"/>
</g>
<g class="st0">
	<ellipse cx="1506.18" cy="396.96" rx="14.97" ry="14.36"/>
</g>
<g class="st0">
	<ellipse cx="1606.79" cy="396.96" rx="14.97" ry="14.36"/>
</g>
<g class="st0">
	<ellipse cx="1706.2" cy="396.96" rx="14.97" ry="14.36"/>
</g>
<g class="st0">
	<ellipse cx="1805.61" cy="396.96" rx="14.97" ry="14.36"/>
</g>
<g class="st0">
	<ellipse cx="114.39" cy="492.32" rx="14.97" ry="14.36"/>
</g>
<g class="st0">
	<ellipse cx="213.8" cy="492.32" rx="14.97" ry="14.36"/>
</g>
<g class="st0">
	<ellipse cx="313.21" cy="492.32" rx="14.97" ry="14.36"/>
</g>
<g class="st0">
	<ellipse cx="412.63" cy="492.32" rx="14.97" ry="14.36"/>
</g>
<g class="st0">
	<ellipse cx="512.04" cy="492.32" rx="14.97" ry="14.36"/>
</g>
<g class="st0">
	<ellipse cx="611.45" cy="492.32" rx="14.97" ry="14.36"/>
</g>
<g class="st0">
	<ellipse cx="710.87" cy="492.32" rx="14.97" ry="14.36"/>
</g>
<g class="st0">
	<ellipse cx="810.28" cy="492.32" rx="14.97" ry="14.36"/>
</g>
<g class="st0">
	<ellipse cx="909.69" cy="492.32" rx="14.97" ry="14.36"/>
</g>
<g class="st0">
	<ellipse cx="1009.11" cy="492.32" rx="14.97" ry="14.36"/>
</g>
<g class="st0">
	<ellipse cx="1108.52" cy="492.32" rx="14.97" ry="14.36"/>
</g>
<g class="st0">
	<ellipse cx="1207.94" cy="492.32" rx="14.97" ry="14.36"/>
</g>
<g class="st0">
	<ellipse cx="1307.35" cy="492.32" rx="14.97" ry="14.36"/>
</g>
<g class="st0">
	<ellipse cx="1406.76" cy="492.32" rx="14.97" ry="14.36"/>
</g>
<g class="st0">
	<ellipse cx="1506.18" cy="492.32" rx="14.97" ry="14.36"/>
</g>
<g class="st0">
	<ellipse cx="1606.79" cy="492.32" rx="14.97" ry="14.36"/>
</g>
<g class="st0">
	<ellipse cx="1706.2" cy="492.32" rx="14.97" ry="14.36"/>
</g>
<g class="st0">
	<ellipse cx="1805.61" cy="492.32" rx="14.97" ry="14.36"/>
</g>
<g class="st0">
	<ellipse cx="114.39" cy="587.68" rx="14.97" ry="14.36"/>
</g>
<g class="st0">
	<ellipse cx="213.8" cy="587.68" rx="14.97" ry="14.36"/>
</g>
<g class="st0">
	<ellipse cx="313.21" cy="587.68" rx="14.97" ry="14.36"/>
</g>
<g class="st0">
	<ellipse cx="412.63" cy="587.68" rx="14.97" ry="14.36"/>
</g>
<g class="st0">
	<ellipse cx="512.04" cy="587.68" rx="14.97" ry="14.36"/>
</g>
<g class="st0">
	<ellipse cx="611.45" cy="587.68" rx="14.97" ry="14.36"/>
</g>
<g class="st0">
	<ellipse cx="710.87" cy="587.68" rx="14.97" ry="14.36"/>
</g>
<g class="st0">
	<ellipse cx="810.28" cy="587.68" rx="14.97" ry="14.36"/>
</g>
<g class="st0">
	<ellipse cx="909.69" cy="587.68" rx="14.97" ry="14.36"/>
</g>
<g class="st0">
	<ellipse cx="1009.11" cy="587.68" rx="14.97" ry="14.36"/>
</g>
<g class="st0">
	<ellipse cx="1108.52" cy="587.68" rx="14.97" ry="14.36"/>
</g>
<g class="st0">
	<ellipse cx="1207.94" cy="587.68" rx="14.97" ry="14.36"/>
</g>
<g class="st0">
	<ellipse cx="1307.35" cy="587.68" rx="14.97" ry="14.36"/>
</g>
<g class="st0">
	<ellipse cx="1406.76" cy="587.68" rx="14.97" ry="14.36"/>
</g>
<g class="st0">
	<ellipse cx="1506.18" cy="587.68" rx="14.97" ry="14.36"/>
</g>
<g class="st0">
	<ellipse cx="1605.59" cy="587.68" rx="14.97" ry="14.36"/>
</g>
<g class="st0">
	<ellipse cx="1706.2" cy="587.68" rx="14.97" ry="14.36"/>
</g>
<g class="st0">
	<ellipse cx="1805.61" cy="587.68" rx="14.97" ry="14.36"/>
</g>
<g class="st0">
	<ellipse cx="1905.03" cy="587.68" rx="14.97" ry="14.36"/>
</g>
<g class="st0">
	<ellipse cx="14.97" cy="1065.64" rx="14.97" ry="14.36"/>
</g>
<g class="st0">
	<ellipse cx="114.39" cy="683.04" rx="14.97" ry="14.36"/>
</g>
<g class="st0">
	<ellipse cx="213.8" cy="683.04" rx="14.97" ry="14.36"/>
</g>
<g class="st0">
	<ellipse cx="313.21" cy="683.04" rx="14.97" ry="14.36"/>
</g>
<g class="st0">
	<ellipse cx="412.63" cy="683.04" rx="14.97" ry="14.36"/>
</g>
<g class="st0">
	<ellipse cx="512.04" cy="683.04" rx="14.97" ry="14.36"/>
</g>
<g class="st0">
	<ellipse cx="611.45" cy="683.04" rx="14.97" ry="14.36"/>
</g>
<g class="st0">
	<ellipse cx="710.87" cy="683.04" rx="14.97" ry="14.36"/>
</g>
<g class="st0">
	<ellipse cx="810.28" cy="683.04" rx="14.97" ry="14.36"/>
</g>
<g class="st0">
	<ellipse cx="909.69" cy="683.04" rx="14.97" ry="14.36"/>
</g>
<g class="st0">
	<ellipse cx="1009.11" cy="683.04" rx="14.97" ry="14.36"/>
</g>
<g class="st0">
	<ellipse cx="1108.52" cy="683.04" rx="14.97" ry="14.36"/>
</g>
<g class="st0">
	<ellipse cx="1207.94" cy="683.04" rx="14.97" ry="14.36"/>
</g>
<g class="st0">
	<ellipse cx="1307.35" cy="683.04" rx="14.97" ry="14.36"/>
</g>
<g class="st0">
	<ellipse cx="1406.76" cy="683.04" rx="14.97" ry="14.36"/>
</g>
<g class="st0">
	<ellipse cx="1506.18" cy="683.04" rx="14.97" ry="14.36"/>
</g>
<g class="st0">
	<ellipse cx="1605.59" cy="683.04" rx="14.97" ry="14.36"/>
</g>
<g class="st0">
	<ellipse cx="1706.2" cy="683.04" rx="14.97" ry="14.36"/>
</g>
<g class="st0">
	<ellipse cx="1805.61" cy="683.04" rx="14.97" ry="14.36"/>
</g>
<g class="st0">
	<ellipse cx="1905.03" cy="683.04" rx="14.97" ry="14.36"/>
</g>
<g class="st0">
	<ellipse cx="114.39" cy="778.4" rx="14.97" ry="14.36"/>
</g>
<g class="st0">
	<ellipse cx="213.8" cy="778.4" rx="14.97" ry="14.36"/>
</g>
<g class="st0">
	<ellipse cx="313.21" cy="778.4" rx="14.97" ry="14.36"/>
</g>
<g class="st0">
	<ellipse cx="412.63" cy="778.4" rx="14.97" ry="14.36"/>
</g>
<g class="st0">
	<ellipse cx="512.04" cy="778.4" rx="14.97" ry="14.36"/>
</g>
<g class="st0">
	<ellipse cx="611.45" cy="778.4" rx="14.97" ry="14.36"/>
</g>
<g class="st0">
	<ellipse cx="710.87" cy="778.4" rx="14.97" ry="14.36"/>
</g>
<g class="st0">
	<ellipse cx="810.28" cy="778.4" rx="14.97" ry="14.36"/>
</g>
<g class="st0">
	<ellipse cx="909.69" cy="778.4" rx="14.97" ry="14.36"/>
</g>
<g class="st0">
	<ellipse cx="1009.11" cy="778.4" rx="14.97" ry="14.36"/>
</g>
<g class="st0">
	<ellipse cx="1108.52" cy="778.4" rx="14.97" ry="14.36"/>
</g>
<g class="st0">
	<ellipse cx="1207.94" cy="778.4" rx="14.97" ry="14.36"/>
</g>
<g class="st0">
	<ellipse cx="1307.35" cy="778.4" rx="14.97" ry="14.36"/>
</g>
<g class="st0">
	<ellipse cx="1406.76" cy="778.4" rx="14.97" ry="14.36"/>
</g>
<g class="st0">
	<ellipse cx="1506.18" cy="778.4" rx="14.97" ry="14.36"/>
</g>
<g class="st0">
	<ellipse cx="1605.59" cy="778.4" rx="14.97" ry="14.36"/>
</g>
<g class="st0">
	<ellipse cx="1706.2" cy="778.4" rx="14.97" ry="14.36"/>
</g>
<g class="st0">
	<ellipse cx="1805.61" cy="778.4" rx="14.97" ry="14.36"/>
</g>
<g class="st0">
	<ellipse cx="1905.03" cy="778.4" rx="14.97" ry="14.36"/>
</g>
<g class="st0">
	<ellipse cx="114.39" cy="874.91" rx="14.97" ry="14.36"/>
</g>
<g class="st0">
	<ellipse cx="213.8" cy="874.91" rx="14.97" ry="14.36"/>
</g>
<g class="st0">
	<ellipse cx="313.21" cy="874.91" rx="14.97" ry="14.36"/>
</g>
<g class="st0">
	<ellipse cx="412.63" cy="874.91" rx="14.97" ry="14.36"/>
</g>
<g class="st0">
	<ellipse cx="512.04" cy="874.91" rx="14.97" ry="14.36"/>
</g>
<g class="st0">
	<ellipse cx="611.45" cy="874.91" rx="14.97" ry="14.36"/>
</g>
<g class="st0">
	<ellipse cx="710.87" cy="874.91" rx="14.97" ry="14.36"/>
</g>
<g class="st0">
	<ellipse cx="810.28" cy="874.91" rx="14.97" ry="14.36"/>
</g>
<g class="st0">
	<ellipse cx="909.69" cy="874.91" rx="14.97" ry="14.36"/>
</g>
<g class="st0">
	<ellipse cx="1009.11" cy="874.91" rx="14.97" ry="14.36"/>
</g>
<g class="st0">
	<ellipse cx="1108.52" cy="874.91" rx="14.97" ry="14.36"/>
</g>
<g class="st0">
	<ellipse cx="1207.94" cy="874.91" rx="14.97" ry="14.36"/>
</g>
<g class="st0">
	<ellipse cx="1307.35" cy="874.91" rx="14.97" ry="14.36"/>
</g>
<g class="st0">
	<ellipse cx="1406.76" cy="874.91" rx="14.97" ry="14.36"/>
</g>
<g class="st0">
	<ellipse cx="1506.18" cy="874.91" rx="14.97" ry="14.36"/>
</g>
<g class="st0">
	<ellipse cx="1606.79" cy="874.91" rx="14.97" ry="14.36"/>
</g>
<g class="st0">
	<ellipse cx="1706.2" cy="874.91" rx="14.97" ry="14.36"/>
</g>
<g class="st0">
	<ellipse cx="1805.61" cy="874.91" rx="14.97" ry="14.36"/>
</g>
<g class="st0">
	<ellipse cx="114.39" cy="970.28" rx="14.97" ry="14.36"/>
</g>
<g class="st0">
	<ellipse cx="213.8" cy="970.28" rx="14.97" ry="14.36"/>
</g>
<g class="st0">
	<ellipse cx="313.21" cy="970.28" rx="14.97" ry="14.36"/>
</g>
<g class="st0">
	<ellipse cx="412.63" cy="970.28" rx="14.97" ry="14.36"/>
</g>
<g class="st0">
	<ellipse cx="512.04" cy="970.28" rx="14.97" ry="14.36"/>
</g>
<g class="st0">
	<ellipse cx="611.45" cy="970.28" rx="14.97" ry="14.36"/>
</g>
<g class="st0">
	<ellipse cx="710.87" cy="970.28" rx="14.97" ry="14.36"/>
</g>
<g class="st0">
	<ellipse cx="810.28" cy="970.28" rx="14.97" ry="14.36"/>
</g>
<g class="st0">
	<ellipse cx="909.69" cy="970.28" rx="14.97" ry="14.36"/>
</g>
<g class="st0">
	<ellipse cx="1009.11" cy="970.28" rx="14.97" ry="14.36"/>
</g>
<g class="st0">
	<ellipse cx="1108.52" cy="970.28" rx="14.97" ry="14.36"/>
</g>
<g class="st0">
	<ellipse cx="1207.94" cy="970.28" rx="14.97" ry="14.36"/>
</g>
<g class="st0">
	<ellipse cx="1307.35" cy="970.28" rx="14.97" ry="14.36"/>
</g>
<g class="st0">
	<ellipse cx="1406.76" cy="970.28" rx="14.97" ry="14.36"/>
</g>
<g class="st0">
	<ellipse cx="1506.18" cy="970.28" rx="14.97" ry="14.36"/>
</g>
<g class="st0">
	<ellipse cx="1606.79" cy="970.28" rx="14.97" ry="14.36"/>
</g>
<g class="st0">
	<ellipse cx="1706.2" cy="970.28" rx="14.97" ry="14.36"/>
</g>
<g class="st0">
	<ellipse cx="1805.61" cy="970.28" rx="14.97" ry="14.36"/>
</g>
<g class="st0">
	<ellipse cx="114.39" cy="1065.64" rx="14.97" ry="14.36"/>
</g>
<g class="st0">
	<ellipse cx="213.8" cy="1065.64" rx="14.97" ry="14.36"/>
</g>
<g class="st0">
	<ellipse cx="313.21" cy="1065.64" rx="14.97" ry="14.36"/>
</g>
<g class="st0">
	<ellipse cx="412.63" cy="1065.64" rx="14.97" ry="14.36"/>
</g>
<g class="st0">
	<ellipse cx="512.04" cy="1065.64" rx="14.97" ry="14.36"/>
</g>
<g class="st0">
	<ellipse cx="611.45" cy="1065.64" rx="14.97" ry="14.36"/>
</g>
<g class="st0">
	<ellipse cx="710.87" cy="1065.64" rx="14.97" ry="14.36"/>
</g>
<g class="st0">
	<ellipse cx="810.28" cy="1065.64" rx="14.97" ry="14.36"/>
</g>
<g class="st0">
	<ellipse cx="909.69" cy="1065.64" rx="14.97" ry="14.36"/>
</g>
<g class="st0">
	<ellipse cx="1009.11" cy="1065.64" rx="14.97" ry="14.36"/>
</g>
<g class="st0">
	<ellipse cx="1108.52" cy="1065.64" rx="14.97" ry="14.36"/>
</g>
<g class="st0">
	<ellipse cx="1207.94" cy="1065.64" rx="14.97" ry="14.36"/>
</g>
<g class="st0">
	<ellipse cx="1307.35" cy="1065.64" rx="14.97" ry="14.36"/>
</g>
<g class="st0">
	<ellipse cx="1406.76" cy="1065.64" rx="14.97" ry="14.36"/>
</g>
<g class="st0">
	<ellipse cx="1506.18" cy="1065.64" rx="14.97" ry="14.36"/>
</g>
<g class="st0">
	<ellipse cx="1606.79" cy="1065.64" rx="14.97" ry="14.36"/>
</g>
<g class="st0">
	<ellipse cx="1706.2" cy="1065.64" rx="14.97" ry="14.36"/>
</g>
<g class="st0">
	<ellipse cx="1805.61" cy="1065.64" rx="14.97" ry="14.36"/>
</g>
<g class="st0">
	<ellipse cx="1905.03" cy="301.6" rx="14.97" ry="14.36"/>
</g>
<g class="st0">
	<ellipse cx="1905.03" cy="396.96" rx="14.97" ry="14.36"/>
</g>
<g class="st0">
	<ellipse cx="1905.03" cy="492.32" rx="14.97" ry="14.36"/>
</g>
<g class="st0">
	<ellipse cx="1905.03" cy="874.91" rx="14.97" ry="14.36"/>
</g>
<g class="st0">
	<ellipse cx="1905.03" cy="970.28" rx="14.97" ry="14.36"/>
</g>
<g class="st0">
	<ellipse cx="1905.03" cy="1065.64" rx="14.97" ry="14.36"/>
</g>
</svg>
