<svg xmlns="http://www.w3.org/2000/svg" width="128" height="128" viewBox="476 476 128 128" xmlns:v="https://vecta.io/nano"><g transform="translate(540 540)"><path vector-effect="non-scaling-stroke" d="M-540-540H540V540H-540z" fill="#fff" visibility="hidden"/><circle vector-effect="non-scaling-stroke" cx="0" cy="0" r="64" fill="#c03bcf"/></g><path vector-effect="non-scaling-stroke" d="M64 72.4l38.2-32.7c-.6-.4-1.4-.7-2.2-.7H28c-.8 0-1.6.3-2.2.7L64 72.4zm2.6 3c-1.5 1.3-3.7 1.3-5.2 0L24 43.5V85c0 2.2 1.8 4 4 4h72c2.2 0 4-1.8 4-4V43.4l-37.4 32z" fill="#fff" transform="translate(476 476)"/></svg>