<svg xmlns="http://www.w3.org/2000/svg" width="1080" height="1080" xmlns:v="https://vecta.io/nano"><circle cx="540" cy="540" r="540" fill="#fff"/><path fill="transparent" d="M0 0h1080v1080H0z"/><path vector-effect="non-scaling-stroke" d="M-540-540H540V540H-540z" fill="#fff" visibility="hidden" transform="translate(540 540)"/><path vector-effect="non-scaling-stroke" transform="matrix(14.38 0 0 14.38 -179 -179)" d="M49.998 15.625c-18.938 0-34.294 15.356-34.294 34.299 0 15.152 9.824 28.009 23.457 32.544 1.715.314 2.255-.703 2.255-1.612v-5.955c-9.539 2.075-11.516-4.516-11.516-4.516-1.558-3.964-3.805-5.017-3.805-5.017-3.114-2.127.233-2.088.233-2.088 3.441.243 5.255 3.537 5.255 3.537 3.06 5.237 8.026 3.725 9.978 2.85.313-2.217 1.201-3.729 2.181-4.586-7.615-.867-15.622-3.808-15.622-16.951 0-3.746 1.336-6.806 3.529-9.202-.354-.867-1.533-4.355.337-9.079 0 0 2.879-.921 9.43 3.518 2.736-.761 5.671-1.14 8.587-1.154 2.914.013 5.848.393 8.587 1.154 6.549-4.438 9.427-3.518 9.427-3.518 1.868 4.724.691 8.212.339 9.079 2.194 2.396 3.527 5.456 3.527 9.203 0 13.178-8.02 16.076-15.663 16.922 1.231 1.062 2.35 3.12 2.35 6.319v9.494c0 .917.553 1.933 2.294 1.6 13.619-4.543 23.435-17.391 23.435-32.54 0-18.943-15.356-34.299-34.299-34.299zM50 12.5c20.711 0 37.5 16.789 37.5 37.5S70.711 87.5 50 87.5 12.5 70.711 12.5 50 29.289 12.5 50 12.5z" fill="#3364fa"/></svg>