<svg xmlns="http://www.w3.org/2000/svg" width="381.852" height="180.603" xmlns:v="https://vecta.io/nano"><defs><linearGradient x1="-15.615" y1="-9.108" x2="-6.741" y2="-9.108" id="A" gradientTransform="matrix(-5.025e-7,11.486337,-11.486337,-5.025e-7,-30.839638,202.18698)" gradientUnits="userSpaceOnUse" spreadMethod="pad"><stop offset="0" stop-color="#97d9f6"/><stop offset=".92" stop-color="#0f80cc"/></linearGradient></defs><path d="M147.531 89.219c-4.822 0-8.744 1.427-11.75 4.281s-4.531 6.6-4.531 11.188c0 2.377.379 4.545 1.125 6.531s1.907 3.834 3.469 5.5 4.686 3.933 9.344 6.813c5.715 3.489 9.455 6.32 11.25 8.531s2.688 4.524 2.688 6.938c0 3.232-1.064 5.811-3.25 7.75s-5.119 2.906-8.75 2.906c-3.83 0-7.166-1.35-10.031-4.031s-4.311-6.236-4.344-10.687h-1.781v16.156h1.781c.544-1.53 1.296-2.312 2.281-2.312.474 0 1.584.327 3.313.938 4.206 1.497 7.66 2.219 10.375 2.219 4.679 0 8.673-1.639 12-4.969s5-7.344 5-12.031c0-3.635-1.107-6.869-3.281-9.687s-6.401-6.105-12.719-9.875c-5.436-3.266-8.965-5.926-10.594-8s-2.469-4.361-2.469-6.875c0-2.719.999-4.903 2.969-6.531s4.551-2.437 7.781-2.437c3.635 0 6.665 1.079 9.063 3.25s3.78 5.189 4.188 9.063h1.781v-14h-1.656c-.202.714-.39 1.17-.562 1.375-.167.204-.49.313-.969.313-.576 0-1.604-.243-3.062-.719-3.125-1.052-6.006-1.594-8.656-1.594zm58.219 0c-5.876 0-11.211 1.385-16.031 4.156-4.827 2.766-8.649 6.608-11.469 11.5s-4.219 10.088-4.219 15.625c0 7.439 2.435 14.066 7.344 19.875s10.796 9.422 17.625 10.813c1.561.814 3.795 2.913 6.719 6.313 3.295 3.836 6.083 6.602 8.375 8.25s4.762 2.857 7.375 3.656 5.442 1.188 8.5 1.188c3.702 0 7.018-.643 9.938-1.969L239.25 167c-1.695.611-3.502.906-5.406.906-2.584 0-5.195-.852-7.812-2.562s-5.882-4.986-9.781-9.812c-1.833-2.312-3.097-3.772-3.812-4.344 7.471-1.459 13.615-5.08 18.406-10.875s7.188-12.403 7.188-19.812c0-8.797-3.13-16.191-9.344-22.219s-13.866-9.062-22.937-9.062zm36.344 0l.094 1.906c3.912 0 6.104 1.153 6.594 3.469.183.829.266 2.359.281 4.563l-.031 42.156c-.032 3.149-.481 5.159-1.344 6.031-.864.866-2.324 1.409-4.437 1.625l-.094 1.906h39l1-9.562h-1.781c-.509 2.605-1.675 4.471-3.531 5.531-1.861 1.068-5.152 1.594-9.906 1.594h-3.687c-4.277 0-6.752-1.546-7.406-4.656-.135-.615-.181-1.275-.187-2l.156-42.625c-.001-3.144.396-5.25 1.219-6.281.831-1.028 2.33-1.603 4.5-1.75l-.094-1.906h-20.344zm-35.719 2.313c6.627 0 12.039 2.61 16.219 7.875s6.25 12.485 6.25 21.625c0 8.661-2.101 15.596-6.312 20.812s-9.816 7.813-16.781 7.813c-6.691 0-12.118-2.679-16.281-8.062s-6.219-12.374-6.219-20.969c0-8.832 2.084-15.903 6.281-21.188 4.195-5.279 9.813-7.906 16.844-7.906zm89.688 9.063c-.951 0-1.676.321-2.219.969-.555.645-.725 1.426-.531 2.375.188.92.706 1.727 1.531 2.406s1.705 1.031 2.656 1.031c.92 0 1.621-.353 2.125-1.031s.658-1.486.469-2.406c-.194-.949-.695-1.73-1.469-2.375-.783-.647-1.642-.969-2.562-.969zm25.719 6.469c-1.616 6.218-5.12 9.582-10.5 10.125l.063 1.781h6.281l-.125 21.062c.01 3.601.12 5.999.375 7.219.619 2.921 2.526 4.406 5.719 4.406 4.619 0 9.464-2.814 14.531-8.437l-1.531-1.312c-3.659 3.704-6.894 5.563-9.719 5.563-1.736 0-2.812-.999-3.219-2.969-.111-.478-.156-1.038-.156-1.687l.063-23.844h9.594l-.094-2.844h-9.469v-9.062h-1.812zM358.875 115c-5.366 0-9.731 2.605-13.125 7.781-3.376 5.185-4.421 10.93-3.094 17.25.781 3.702 2.337 6.571 4.719 8.594s5.394 3.031 9 3.031c3.358 0 8.033-.85 10-2.562 1.973-1.711 3.79-4.484 5.469-8.281l-1.344-1.406c-2.678 4.926-8.081 7.406-12.156 7.406-5.603 0-9.034-3.074-10.312-9.187-.166-.78-.29-1.619-.375-2.5 6.665-1.055 11.716-2.924 15.125-5.625s6.826-5.567 6.188-8.594c-.38-1.798-1.314-3.212-2.75-4.281-1.455-1.068-5.233-1.625-7.344-1.625zm-58.656.219l-11.562 2.656v2.063l4-.5c1.938 0 3.077.877 3.438 2.625.121.585.197 1.406.219 2.438l-.125 18.906c-.033 2.616-.322 4.137-.906 4.594s-2.141.688-4.656.688l-.062 1.781h18.344l-.031-1.781c-2.549 0-4.201-.201-4.937-.594-.724-.39-1.223-1.1-1.437-2.187-.166-.784-.239-2.134-.25-4l.063-26.687h-2.094zm55.719 3.5c1.116 0 2.195.431 3.281 1.281 1.071.847 1.724 1.789 1.938 2.813 1.046 5.026-3.41 8.501-13.437 10.437-.286-3.665.349-6.992 1.969-10 1.608-3.005 3.701-4.531 6.25-4.531z" fill="#003b57"/><path d="M121.632 17.036H22.126C15.457 17.036 10 22.494 10 29.162v109.736c0 6.668 5.457 12.125 12.126 12.125h65.537c-.744-32.609 10.392-95.894 33.969-133.988z" fill="#0f80cc"/><path d="M118.017 20.574H22.125a8.6 8.6 0 0 0-8.589 8.589v101.73c21.717-8.335 54.312-15.527 76.85-15.2 4.529-23.681 17.839-70.09 27.63-95.119z" fill="url(#A)"/><path d="M144.842 13.445c-6.815-6.077-15.066-3.636-23.21 3.591-1.209 1.074-2.415 2.265-3.615 3.538-13.931 14.779-26.862 42.154-30.88 63.06 1.565 3.174 2.787 7.224 3.593 10.317l.541 2.172a72.46 72.46 0 0 1 .544 2.472s-.125-.473-.638-1.959l-.335-.963c-.055-.151-.131-.335-.215-.531-.909-2.112-3.422-6.571-4.529-8.513-.946 2.791-1.782 5.403-2.483 7.765 3.194 5.844 5.14 15.858 5.14 15.858s-.169-.649-.971-2.914c-.713-2.003-4.261-8.221-5.102-9.675-1.438 5.309-2.009 8.893-1.494 9.765 1 1.691 1.953 4.608 2.79 7.835 1.89 7.269 3.204 16.117 3.204 16.117l.114 1.489a148.08 148.08 0 0 0 .368 18.153c.626 7.572 1.805 14.077 3.308 17.559l1.02-.556c-2.206-6.859-3.103-15.848-2.71-26.214.594-15.845 4.24-34.954 10.977-54.87 11.382-30.065 27.175-54.187 41.629-65.707-13.174 11.898-31.004 50.409-36.341 64.67-5.976 15.97-10.211 30.956-12.764 45.315 4.404-13.461 18.643-19.247 18.643-19.247s6.984-8.613 15.145-20.918c-4.889 1.115-12.916 3.024-15.605 4.154-3.966 1.664-5.035 2.231-5.035 2.231s12.847-7.824 23.87-11.366c15.159-23.875 31.674-57.792 15.042-72.629" fill="#003b57"/></svg>