<?xml version="1.0" encoding="utf-8"?>
<!-- Generator: Adobe Illustrator 25.0.0, SVG Export Plug-In . SVG Version: 6.00 Build 0)  -->
<svg version="1.1" id="Layer_1" xmlns="http://www.w3.org/2000/svg" xmlns:xlink="http://www.w3.org/1999/xlink" x="0px" y="0px"
	 viewBox="0 0 1366 768" style="enable-background:new 0 0 1366 768;" xml:space="preserve">
<style type="text/css">
	.st0{opacity:0.13;}
</style>
<path class="st0" d="M169.77,236.9l-12.26-16.38c-0.86-1.15-2.03-2.03-3.38-2.53l-19.16-7.17c-5.56-2.08-6.62-9.49-1.87-13.04
	l16.38-12.26c1.15-0.86,2.03-2.03,2.53-3.38l7.17-19.16c2.08-5.56,9.49-6.62,13.04-1.87l12.26,16.38c0.86,1.15,2.03,2.03,3.38,2.53
	l19.16,7.17c5.56,2.08,6.62,9.49,1.87,13.04l-16.38,12.26c-1.15,0.86-2.03,2.03-2.53,3.38l-7.17,19.16
	C180.73,240.59,173.33,241.65,169.77,236.9z"/>
<path class="st0" d="M362.72,498.84l-5.74-13.79c-0.4-0.97-1.07-1.8-1.94-2.4l-12.27-8.52c-3.56-2.47-2.98-7.9,1.02-9.57l13.79-5.74
	c0.97-0.4,1.8-1.07,2.4-1.94l8.52-12.27c2.47-3.56,7.9-2.98,9.57,1.02l5.74,13.79c0.4,0.97,1.07,1.8,1.94,2.4l12.27,8.52
	c3.56,2.47,2.98,7.9-1.02,9.57l-13.79,5.74c-0.97,0.4-1.8,1.07-2.4,1.94l-8.52,12.27C369.82,503.42,364.39,502.84,362.72,498.84z"/>
<path class="st0" d="M597.26,275.56l4.37-9.09c0.31-0.64,0.42-1.35,0.34-2.05l-1.22-10.01c-0.35-2.9,2.64-5.05,5.28-3.78l9.09,4.37
	c0.64,0.31,1.35,0.42,2.05,0.34l10.01-1.22c2.9-0.35,5.05,2.64,3.78,5.28l-4.37,9.09c-0.31,0.64-0.42,1.35-0.34,2.05l1.22,10.01
	c0.35,2.9-2.64,5.05-5.28,3.78l-9.09-4.37c-0.64-0.31-1.35-0.42-2.05-0.34l-10.01,1.22C598.14,281.19,595.99,278.19,597.26,275.56z"
	/>
<path class="st0" d="M745.63,171.3l1.8-13.71c0.13-0.96-0.03-1.94-0.44-2.82l-5.88-12.51c-1.71-3.63,1.28-7.71,5.25-7.19l13.71,1.8
	c0.96,0.13,1.94-0.03,2.82-0.44l12.51-5.88c3.63-1.71,7.71,1.28,7.19,5.25l-1.8,13.71c-0.13,0.96,0.03,1.94,0.44,2.82l5.88,12.51
	c1.71,3.63-1.28,7.71-5.25,7.19l-13.71-1.8c-0.96-0.13-1.94,0.03-2.82,0.44l-12.51,5.88C749.19,178.26,745.11,175.27,745.63,171.3z"
	/>
<path class="st0" d="M943.49,512.64l2.77-15.85c0.19-1.11,0.07-2.26-0.37-3.3l-6.22-14.84c-1.8-4.3,1.86-8.9,6.46-8.1l15.85,2.77
	c1.11,0.19,2.26,0.07,3.3-0.37l14.84-6.22c4.3-1.8,8.9,1.86,8.1,6.46l-2.77,15.85c-0.19,1.11-0.07,2.26,0.37,3.3l6.22,14.84
	c1.8,4.3-1.86,8.9-6.46,8.1l-15.85-2.77c-1.11-0.19-2.26-0.07-3.3,0.37l-14.84,6.22C947.28,520.91,942.68,517.24,943.49,512.64z"/>
<path class="st0" d="M645.94,480.64l8.9-8.36c0.63-0.59,1.07-1.34,1.28-2.17l2.99-11.84c0.87-3.44,5.19-4.56,7.62-1.97l8.36,8.9
	c0.59,0.63,1.34,1.07,2.17,1.28l11.84,2.99c3.44,0.87,4.56,5.19,1.97,7.62l-8.9,8.36c-0.63,0.59-1.07,1.34-1.28,2.17l-2.99,11.84
	c-0.87,3.44-5.19,4.56-7.62,1.97l-8.36-8.9c-0.59-0.63-1.34-1.07-2.17-1.28l-11.84-2.99C644.48,487.39,643.36,483.07,645.94,480.64z
	"/>
<path class="st0" d="M95.82,712.42l4.37-9.09c0.31-0.64,0.42-1.35,0.34-2.05l-1.22-10.01c-0.35-2.9,2.64-5.05,5.28-3.78l9.09,4.37
	c0.64,0.31,1.35,0.42,2.05,0.34l10.01-1.22c2.9-0.35,5.05,2.64,3.78,5.28l-4.37,9.09c-0.31,0.64-0.42,1.35-0.34,2.05l1.22,10.01
	c0.35,2.9-2.64,5.05-5.28,3.78l-9.09-4.37c-0.64-0.31-1.35-0.42-2.05-0.34L99.6,717.7C96.7,718.05,94.55,715.06,95.82,712.42z"/>
<path class="st0" d="M513.44,641.06l9.96-1.57c0.7-0.11,1.35-0.42,1.88-0.89l7.54-6.69c2.19-1.94,5.66-0.7,6.11,2.19l1.57,9.96
	c0.11,0.7,0.42,1.35,0.89,1.88l6.69,7.54c1.94,2.19,0.7,5.66-2.19,6.11l-9.96,1.57c-0.7,0.11-1.35,0.42-1.88,0.89l-7.54,6.69
	c-2.19,1.94-5.66,0.7-6.11-2.19l-1.57-9.96c-0.11-0.7-0.42-1.35-0.89-1.88l-6.69-7.54C509.3,644.99,510.55,641.52,513.44,641.06z"/>
<path class="st0" d="M416.92,185.22l4.59-9.68c0.32-0.68,0.44-1.44,0.35-2.18l-1.36-10.63c-0.39-3.08,2.78-5.38,5.59-4.05l9.68,4.59
	c0.68,0.32,1.44,0.44,2.18,0.35l10.63-1.36c3.08-0.39,5.38,2.78,4.05,5.59l-4.59,9.68c-0.32,0.68-0.44,1.44-0.35,2.18l1.36,10.63
	c0.39,3.08-2.78,5.38-5.59,4.05l-9.68-4.59c-0.68-0.32-1.44-0.44-2.18-0.35l-10.63,1.36C417.89,191.2,415.59,188.03,416.92,185.22z"
	/>
<path class="st0" d="M1086.27,252.12l6.53-13.58c0.46-0.95,0.63-2.02,0.51-3.07l-1.83-14.95c-0.53-4.34,3.95-7.55,7.89-5.65
	l13.58,6.53c0.95,0.46,2.02,0.63,3.07,0.51l14.95-1.83c4.34-0.53,7.55,3.95,5.65,7.89l-6.53,13.58c-0.46,0.95-0.63,2.02-0.51,3.07
	l1.83,14.95c0.53,4.34-3.95,7.55-7.89,5.65l-13.58-6.53c-0.95-0.46-2.02-0.63-3.07-0.51l-14.95,1.83
	C1087.59,260.53,1084.38,256.06,1086.27,252.12z"/>
<path class="st0" d="M838.7,339.53l2.53-9.76c0.18-0.69,0.15-1.41-0.07-2.08l-3.14-9.58c-0.91-2.78,1.61-5.47,4.44-4.74l9.76,2.53
	c0.69,0.18,1.41,0.15,2.08-0.07l9.58-3.14c2.78-0.91,5.47,1.61,4.74,4.44l-2.53,9.76c-0.18,0.69-0.15,1.41,0.07,2.08l3.14,9.58
	c0.91,2.78-1.61,5.47-4.44,4.74l-9.76-2.53c-0.69-0.18-1.41-0.15-2.08,0.07l-9.58,3.14C840.66,344.89,837.97,342.36,838.7,339.53z"
	/>
<path class="st0" d="M1152.42,443.74l7.38-15.35c0.52-1.08,0.72-2.28,0.57-3.47l-2.07-16.91c-0.6-4.91,4.46-8.54,8.92-6.39
	l15.35,7.38c1.08,0.52,2.28,0.72,3.47,0.57l16.91-2.07c4.91-0.6,8.54,4.46,6.39,8.92l-7.38,15.35c-0.52,1.08-0.72,2.28-0.57,3.47
	l2.07,16.91c0.6,4.91-4.46,8.54-8.92,6.39l-15.35-7.38c-1.08-0.52-2.28-0.72-3.47-0.57l-16.91,2.07
	C1153.91,453.26,1150.28,448.19,1152.42,443.74z"/>
<path class="st0" d="M131.25,453.18l3.12-6.5c0.22-0.46,0.3-0.97,0.24-1.47l-0.87-7.16c-0.25-2.08,1.89-3.61,3.77-2.71l6.5,3.12
	c0.46,0.22,0.97,0.3,1.47,0.24l7.16-0.87c2.08-0.25,3.61,1.89,2.71,3.77l-3.12,6.5c-0.22,0.46-0.3,0.97-0.24,1.47l0.87,7.16
	c0.25,2.08-1.89,3.61-3.77,2.71l-6.5-3.12c-0.46-0.22-0.97-0.3-1.47-0.24l-7.16,0.87C131.88,457.21,130.34,455.06,131.25,453.18z"/>
<path class="st0" d="M674.31,394.76l0-7.21c0-0.51-0.14-1-0.42-1.43l-3.89-6.07c-1.13-1.76,0.14-4.07,2.23-4.07l7.21,0
	c0.51,0,1-0.14,1.43-0.42l6.07-3.89c1.76-1.13,4.07,0.14,4.07,2.23l0,7.21c0,0.51,0.14,1,0.42,1.43l3.89,6.07
	c1.13,1.76-0.14,4.07-2.23,4.07l-7.21,0c-0.51,0-1,0.14-1.43,0.42l-6.07,3.89C676.63,398.12,674.31,396.86,674.31,394.76z"/>
<path class="st0" d="M1023.34,678.95l3.13-6.5c0.22-0.46,0.3-0.97,0.24-1.47l-0.87-7.16c-0.25-2.08,1.89-3.61,3.77-2.71l6.5,3.12
	c0.46,0.22,0.97,0.3,1.47,0.24l7.16-0.87c2.08-0.25,3.61,1.89,2.71,3.77l-3.12,6.5c-0.22,0.46-0.3,0.97-0.24,1.47l0.87,7.16
	c0.25,2.08-1.89,3.61-3.77,2.71l-6.5-3.12c-0.46-0.22-0.97-0.3-1.47-0.24l-7.16,0.87C1023.97,682.98,1022.44,680.84,1023.34,678.95z
	"/>
<path class="st0" d="M340.62,291.5l2.83-6.63c0.2-0.47,0.26-0.98,0.17-1.48l-1.2-7.11c-0.35-2.06,1.72-3.69,3.65-2.87l6.63,2.83
	c0.47,0.2,0.98,0.26,1.48,0.17l7.11-1.2c2.06-0.35,3.69,1.72,2.87,3.65l-2.83,6.63c-0.2,0.47-0.26,0.98-0.17,1.48l1.2,7.11
	c0.35,2.06-1.72,3.69-3.65,2.87l-6.63-2.83c-0.47-0.2-0.98-0.26-1.48-0.17l-7.11,1.2C341.43,295.49,339.8,293.42,340.62,291.5z"/>
<path class="st0" d="M1121.87,47.22l-0.56-7.19c-0.04-0.5-0.22-0.99-0.53-1.39l-4.35-5.75c-1.26-1.67-0.18-4.07,1.91-4.23l7.19-0.56
	c0.5-0.04,0.99-0.22,1.39-0.53l5.75-4.35c1.67-1.26,4.07-0.18,4.23,1.91l0.56,7.19c0.04,0.5,0.22,0.99,0.53,1.39l4.35,5.75
	c1.26,1.67,0.18,4.07-1.91,4.23l-7.19,0.56c-0.5,0.04-0.99,0.22-1.39,0.53l-5.75,4.35C1124.43,50.39,1122.03,49.3,1121.87,47.22z"/>
</svg>
