<?xml version="1.0" encoding="UTF-8" standalone="no" ?>
<!DOCTYPE svg PUBLIC "-//W3C//DTD SVG 1.1//EN" "http://www.w3.org/Graphics/SVG/1.1/DTD/svg11.dtd">
<svg xmlns="http://www.w3.org/2000/svg" xmlns:xlink="http://www.w3.org/1999/xlink" version="1.1" width="1080" height="1080" viewBox="0 0 1080 1080" xml:space="preserve">
<desc>Created with Fabric.js 5.2.4</desc>
<defs>
</defs>
<g transform="matrix(1 0 0 1 540 540)" id="be8e1890-7740-41a8-a7df-cc5a47d62f62"  >
</g>
<g transform="matrix(1 0 0 1 540 540)" id="20863f04-2f46-4c11-ba80-9b7c408aae4e"  >
<rect style="stroke: none; stroke-width: 1; stroke-dasharray: none; stroke-linecap: butt; stroke-dashoffset: 0; stroke-linejoin: miter; stroke-miterlimit: 4; fill: rgb(255,255,255); fill-rule: nonzero; opacity: 1; visibility: hidden;" vector-effect="non-scaling-stroke"  x="-540" y="-540" rx="0" ry="0" width="1080" height="1080" />
</g>
<g transform="matrix(1 0 0 1 540 540)"  >
<path style="stroke: rgb(0,0,0); stroke-width: 0; stroke-dasharray: none; stroke-linecap: butt; stroke-dashoffset: 0; stroke-linejoin: miter; stroke-miterlimit: 4; fill: rgb(0,141,210); fill-rule: nonzero; opacity: 1;" vector-effect="non-scaling-stroke"  transform=" translate(-50, -50)" d="M 49.9976 15.625 C 31.059199999999997 15.625 15.703299999999999 30.981 15.703299999999999 49.9244 C 15.703299999999999 65.0769 25.5272 77.9333 39.160399999999996 82.4685 C 40.8756 82.7827 41.4152 81.76520000000001 41.4152 80.8566 C 41.4152 80.0416 41.4323 77.7661 41.4152 74.9016 C 31.8761 76.9765 29.899 70.3853 29.899 70.3853 C 28.340700000000002 66.4213 26.0939 65.368 26.0939 65.368 C 22.9801 63.24079999999999 26.3272 63.2803 26.3272 63.2803 C 29.7684 63.5235 31.5826 66.8169 31.5826 66.8169 C 34.6421 72.0536 39.6082 70.5419 41.561099999999996 69.66680000000001 C 41.8739 67.4496 42.76199999999999 65.93750000000001 43.741699999999994 65.0811 C 36.12629999999999 64.21440000000001 28.119399999999995 61.273 28.119399999999995 48.130300000000005 C 28.119399999999995 44.383900000000004 29.455299999999994 41.323800000000006 31.648899999999994 38.927800000000005 C 31.295099999999994 38.060500000000005 30.115999999999993 34.572500000000005 31.985499999999995 29.848700000000004 C 31.985499999999995 29.848700000000004 34.864599999999996 28.927400000000006 41.4152 33.367200000000004 C 44.1507 32.6064 47.0864 32.2269 50.001999999999995 32.2137 C 52.91629999999999 32.2269 55.8499 32.6064 58.5886 33.367200000000004 C 65.138 28.929200000000005 68.0153 29.848700000000004 68.0153 29.848700000000004 C 69.88289999999999 34.572500000000005 68.7063 38.060500000000005 68.3543 38.927800000000005 C 70.5483 41.323800000000006 71.8809 44.383900000000004 71.8809 48.130300000000005 C 71.8809 61.3081 63.861 64.20590000000001 56.218199999999996 65.0519 C 57.4496 66.1136 58.567899999999995 68.1716 58.567899999999995 71.37100000000001 C 58.567899999999995 75.65950000000001 58.567899999999995 79.73830000000001 58.567899999999995 80.86470000000001 C 58.567899999999995 81.78170000000001 59.1204 82.7973 60.8623 82.46420000000002 C 74.4808 77.92100000000002 84.297 65.07270000000003 84.297 49.92440000000002 C 84.297 30.98100000000002 68.941 15.625000000000021 49.9976 15.625000000000021 z M 50 12.5001 C 70.7106 12.5001 87.4999 29.2894 87.4999 50.0001 C 87.4999 70.7107 70.7106 87.5 50 87.5 C 29.2894 87.5 12.5002 70.7107 12.5002 50.0001 C 12.5002 29.289400000000004 29.2894 12.500100000000003 50 12.500100000000003 z" stroke-linecap="round" />
</g>
<g transform="matrix(1 0 0 1 50 50)"  >
<rect style="stroke: none; stroke-width: 1; stroke-dasharray: none; stroke-linecap: butt; stroke-dashoffset: 0; stroke-linejoin: miter; stroke-miterlimit: 4; fill: rgb(255,255,255); fill-opacity: 0; fill-rule: nonzero; opacity: 1;" vector-effect="non-scaling-stroke"  x="-50" y="-50" rx="0" ry="0" width="100" height="100" />
</g>
<g transform="matrix(1 0 0 1 540 540)"  >
<rect style="stroke: none; stroke-width: 1; stroke-dasharray: none; stroke-linecap: butt; stroke-dashoffset: 0; stroke-linejoin: miter; stroke-miterlimit: 4; fill: rgb(255,255,255); fill-rule: nonzero; opacity: 1; visibility: hidden;" vector-effect="non-scaling-stroke"  x="-540" y="-540" rx="0" ry="0" width="1080" height="1080" />
</g>
<g transform="matrix(14.92 0 0 14.92 540 540)"  >
<path style="stroke: none; stroke-width: 1; stroke-dasharray: none; stroke-linecap: butt; stroke-dashoffset: 0; stroke-linejoin: miter; stroke-miterlimit: 4; fill: rgb(44,122,240); fill-rule: evenodd; opacity: 1;" vector-effect="non-scaling-stroke"  transform=" translate(-36, -36)" d="M 8 72 L 64 72 C 68.418278 72 72 68.418278 72 64 L 72 8 C 72 3.581722 68.418278 -8.11624501e-16 64 0 L 8 0 C 3.581722 8.11624501e-16 -5.41083001e-16 3.581722 0 8 L 0 64 C 5.41083001e-16 68.418278 3.581722 72 8 72 Z" stroke-linecap="round" />
</g>
<g transform="matrix(14.92 0 0 14.92 540 540)"  >
<path style="stroke: none; stroke-width: 1; stroke-dasharray: none; stroke-linecap: butt; stroke-dashoffset: 0; stroke-linejoin: miter; stroke-miterlimit: 4; fill: rgb(255,255,255); fill-rule: evenodd; opacity: 1;" vector-effect="non-scaling-stroke"  transform=" translate(-36, -36)" d="M 62 62 L 51.315625 62 L 51.315625 43.8021149 C 51.315625 38.8127542 49.4197917 36.0245323 45.4707031 36.0245323 C 41.1746094 36.0245323 38.9300781 38.9261103 38.9300781 43.8021149 L 38.9300781 62 L 28.6333333 62 L 28.6333333 27.3333333 L 38.9300781 27.3333333 L 38.9300781 32.0029283 C 38.9300781 32.0029283 42.0260417 26.2742151 49.3825521 26.2742151 C 56.7356771 26.2742151 62 30.7644705 62 40.051212 L 62 62 Z M 16.349349 22.7940133 C 12.8420573 22.7940133 10 19.9296567 10 16.3970067 C 10 12.8643566 12.8420573 10 16.349349 10 C 19.8566406 10 22.6970052 12.8643566 22.6970052 16.3970067 C 22.6970052 19.9296567 19.8566406 22.7940133 16.349349 22.7940133 Z M 11.0325521 62 L 21.769401 62 L 21.769401 27.3333333 L 11.0325521 27.3333333 L 11.0325521 62 Z" stroke-linecap="round" />
</g>
<g transform="matrix(NaN NaN NaN NaN 0 0)"  >
<g style=""   >
</g>
</g>
<g transform="matrix(NaN NaN NaN NaN 0 0)"  >
<g style=""   >
</g>
</g>
</svg>